<svg width="128" height="128" viewBox="0 0 24 24" xmlns="http://www.w3.org/2000/svg"><path d="m3 15 .117.007a1 1 0 0 1 .876.876L4 16v4h4l.117.007a1 1 0 0 1 0 1.986L8 22H3l-.117-.007a1 1 0 0 1-.876-.876L2 21v-5l.007-.117a1 1 0 0 1 .876-.876L3 15Zm18 0a1 1 0 0 1 .993.883L22 16v5a1 1 0 0 1-.883.993L21 22h-5a1 1 0 0 1-.117-1.993L16 20h4v-4a1 1 0 0 1 .883-.993L21 15ZM8 2a1 1 0 0 1 .117 1.993L8 4H4v4a1 1 0 0 1-.883.993L3 9a1 1 0 0 1-.993-.883L2 8V3a1 1 0 0 1 .883-.993L3 2h5Zm13 0 .117.007a1 1 0 0 1 .876.876L22 3v5l-.007.117a1 1 0 0 1-.876.876L21 9l-.117-.007a1 1 0 0 1-.876-.876L20 8V4h-4l-.117-.007a1 1 0 0 1 0-1.986L16 2h5Z"/></svg>