<svg width="128" height="128" viewBox="0 0 24 24" xmlns="http://www.w3.org/2000/svg"><path d="M21 15a1 1 0 0 1 .117 1.993L21 17h-4v4a1 1 0 0 1-.883.993L16 22a1 1 0 0 1-.993-.883L15 21v-5a1 1 0 0 1 .883-.993L16 15h5ZM8 15l.117.007a1 1 0 0 1 .876.876L9 16v5l-.007.117a1 1 0 0 1-.876.876L8 22l-.117-.007a1 1 0 0 1-.876-.876L7 21v-4H3l-.117-.007a1 1 0 0 1 0-1.986L3 15h5Zm8-13 .117.007a1 1 0 0 1 .876.876L17 3v4h4l.117.007a1 1 0 0 1 0 1.986L21 9h-5l-.117-.007a1 1 0 0 1-.876-.876L15 8V3l.007-.117a1 1 0 0 1 .876-.876L16 2ZM8 2a1 1 0 0 1 .993.883L9 3v5a1 1 0 0 1-.883.993L8 9H3a1 1 0 0 1-.117-1.993L3 7h4V3a1 1 0 0 1 .883-.993L8 2Z"/></svg>